<svg xmlns="http://www.w3.org/2000/svg" xmlns:xlink="http://www.w3.org/1999/xlink" width="40" zoomAndPan="magnify" viewBox="0 0 30 30.000001" height="40" preserveAspectRatio="xMidYMid meet" version="1.0"><defs><clipPath id="e7d478f2ab"><path d="M 0.484375 0 L 29.515625 0 L 29.515625 29.03125 L 0.484375 29.03125 Z M 0.484375 0 " clip-rule="nonzero"/></clipPath></defs><g clip-path="url(#e7d478f2ab)"><path fill="#ffffff" d="M 0.484375 0 L 29.515625 0 L 29.515625 29.03125 L 0.484375 29.03125 Z M 0.484375 0 " fill-opacity="1" fill-rule="nonzero"/><path fill="#ffffff" d="M 0.484375 0 L 29.515625 0 L 29.515625 29.03125 L 0.484375 29.03125 Z M 0.484375 0 " fill-opacity="1" fill-rule="nonzero"/><rect x="-3" width="36" fill="#000000" y="-3" height="36.000001" fill-opacity="1"/></g><path fill="#3873ff" d="M 9.199219 1.003906 L 21.980469 1.003906 L 21.980469 2.46875 L 23.535156 2.46875 L 23.535156 4.140625 L 25.175781 4.140625 L 25.175781 5.773438 L 26.695312 5.773438 L 26.695312 7.398438 L 28.3125 7.398438 L 28.3125 20.132812 L 26.664062 20.132812 L 26.664062 21.808594 L 25.109375 21.808594 L 25.046875 21.84375 L 25.046875 23.417969 L 23.492188 23.417969 L 23.492188 24.992188 L 21.988281 24.992188 L 21.988281 26.558594 L 9.203125 26.558594 L 9.203125 24.929688 L 7.65625 24.929688 L 7.65625 23.355469 L 6.144531 23.355469 L 6.144531 21.757812 L 4.589844 21.757812 L 4.589844 20.183594 L 3.011719 20.183594 L 3.011719 7.449219 L 4.582031 7.449219 L 4.582031 5.773438 L 6.09375 5.773438 L 6.09375 4.125 L 7.644531 4.125 L 7.644531 2.457031 L 9.199219 2.457031 Z M 9.199219 1.003906 " fill-opacity="1" fill-rule="evenodd"/><path fill="#58ff38" d="M 7.632812 3.449219 L 12.488281 3.449219 L 12.488281 5.792969 L 14.066406 5.792969 L 14.066406 7.269531 L 15.410156 7.269531 L 15.410156 8.957031 L 17.128906 8.957031 L 17.128906 15.359375 L 10.804688 15.359375 L 10.804688 13.8125 L 9.207031 13.8125 L 9.207031 12.152344 L 7.632812 12.152344 L 7.632812 10.523438 L 6.054688 10.523438 L 6.054688 5.773438 L 7.632812 5.773438 Z M 6.207031 18.554688 L 9.351562 18.554688 L 9.351562 20.171875 L 10.921875 20.171875 L 10.921875 23.402344 L 7.777344 23.402344 L 7.777344 21.789062 L 6.207031 21.789062 Z M 23.480469 15.359375 L 25.226562 15.359375 L 25.226562 21.816406 L 23.664062 21.816406 L 23.664062 23.410156 L 22.074219 23.410156 L 22.074219 24.980469 L 17.128906 24.980469 L 17.128906 21.765625 L 18.8125 21.765625 L 18.8125 20.195312 L 20.378906 20.195312 L 20.378906 18.601562 L 21.996094 18.601562 L 21.996094 17.019531 L 23.480469 17.019531 Z M 20.421875 2.582031 L 22.035156 2.582031 L 22.035156 5.804688 L 23.582031 5.804688 L 23.582031 7.425781 L 25.164062 7.425781 L 25.164062 8.996094 L 26.714844 8.996094 L 26.714844 12.203125 L 23.589844 12.203125 L 23.589844 10.605469 L 22.011719 10.605469 L 22.011719 9.023438 L 20.421875 9.023438 L 20.421875 7.433594 L 17.238281 7.433594 L 17.238281 5.804688 L 18.820312 5.804688 L 18.820312 4.207031 L 20.421875 4.207031 Z M 20.421875 2.582031 " fill-opacity="1" fill-rule="evenodd"/></svg>